Coordinates
version=1
nRows=11
nColumns=40
inDegrees=yes

Units are S.I. units (second, meters, Newtons, ...)
If the header above contains a line with 'inDegrees', this indicates whether rotational values are in degrees (yes) or radians (no).

endheader
time	pelvis_tilt	pelvis_list	pelvis_rotation	pelvis_tx	pelvis_ty	pelvis_tz	hip_flexion_r	hip_adduction_r	hip_rotation_r	knee_angle_r	knee_angle_r_beta	ankle_angle_r	subtalar_angle_r	mtp_angle_r	hip_flexion_l	hip_adduction_l	hip_rotation_l	knee_angle_l	knee_angle_l_beta	ankle_angle_l	subtalar_angle_l	mtp_angle_l	lumbar_extension	lumbar_bending	lumbar_rotation	arm_flex_r	arm_add_r	arm_rot_r	elbow_flex_r	pro_sup_r	wrist_flex_r	wrist_dev_r	arm_flex_l	arm_add_l	arm_rot_l	elbow_flex_l	pro_sup_l	wrist_flex_l	wrist_dev_l
      0.00500000	      1.97854215	      2.91983675	     -1.74625541	      0.25269280	      0.91813601	     -1.21136992	     -2.27742534	    -21.25064910	    -37.64584590	      4.83905802	      0.08445750	     -7.71118745	      7.67602486	      0.00000000	     -1.71999614	    -13.92116385	    -39.11838664	      4.93448414	      0.08612300	     -5.90362075	     12.83957911	      0.00000000	    -14.34155815	     -2.66196000	     -2.14582167	     44.64858965	    -15.82163100	     44.64858965	     74.99487176	     44.98764122	      0.00000000	      0.00000000	     44.64858965	    -15.82163100	     44.64858965	     74.99487176	     44.98764122	      0.00000000	      0.00000000
      0.01000000	      1.96820217	      2.93476436	     -1.77392847	      0.25263992	      0.91811375	     -1.21130416	     -2.23152027	    -21.27628528	    -37.61402738	      4.87631520	      0.08510776	     -7.68833008	      7.65365229	      0.00000000	     -1.71957763	    -13.89801511	    -39.11864869	      4.91730363	      0.08582314	     -5.92706839	     12.81878078	      0.00000000	    -14.33688436	     -2.71057479	     -2.13616449	     44.68309427	    -15.70160521	     44.68309427	     74.99609524	     44.99241848	      0.00000000	      0.00000000	     44.68309427	    -15.70160521	     44.68309427	     74.99609524	     44.99241848	      0.00000000	      0.00000000
      0.01500000	      1.97448560	      2.85292857	     -1.75367405	      0.25264792	      0.91816738	     -1.21132726	     -2.29813672	    -21.13173969	    -37.51924530	      4.73798291	      0.08269340	     -7.76648996	      7.49621606	      0.00000000	     -1.71721910	    -13.99787764	    -39.09922260	      4.93748156	      0.08617531	     -5.88506337	     12.77938665	      0.00000000	    -14.34924711	     -2.53644616	     -2.07083146	     44.69020021	    -15.67830945	     44.69020021	     74.99631272	     44.99317960	      0.00000000	      0.00000000	     44.69020021	    -15.67830945	     44.69020021	     74.99631272	     44.99317960	      0.00000000	      0.00000000
      0.02000000	      1.99312031	      2.74208322	     -1.86148635	      0.25253760	      0.91825601	     -1.21105750	     -2.25993102	    -20.98238973	    -37.35949304	      4.70728282	      0.08215758	     -7.88706270	      7.31625318	      0.00000000	     -1.81259030	    -14.08599027	    -39.06393031	      4.82092830	      0.08414107	     -5.93077288	     12.52528511	      0.00000000	    -14.41620895	     -2.44232702	     -1.93630085	     44.69850502	    -15.65158205	     44.69850502	     74.99655181	     44.99391532	      0.00000000	      0.00000000	     44.69850502	    -15.65158205	     44.69850502	     74.99655181	     44.99391532	      0.00000000	      0.00000000
      0.02500000	      1.95255432	      2.91392415	     -1.75858287	      0.25263312	      0.91808405	     -1.21127322	     -2.20422669	    -21.25610433	    -37.60816072	      4.90633882	      0.08563177	     -7.67193594	      7.60762078	      0.00000000	     -1.68697567	    -13.93643462	    -39.11594254	      4.94436489	      0.08629545	     -5.91803564	     12.81935105	      0.00000000	    -14.34343680	     -2.67401519	     -2.14964161	     44.74015823	    -15.51931760	     44.74015823	     74.99768744	     44.99696394	      0.00000000	      0.00000000	     44.74015823	    -15.51931760	     44.74015823	     74.99768744	     44.99696394	      0.00000000	      0.00000000
      0.03000000	      1.94727058	      2.89730316	     -1.73850652	      0.25261320	      0.91808261	     -1.21129909	     -2.22633443	    -21.21648111	    -37.56574930	      4.84935693	      0.08463725	     -7.71488712	      7.50176317	      0.00000000	     -1.66388733	    -13.96633559	    -39.11532699	      4.96992572	      0.08674157	     -5.90513600	     12.82882484	      0.00000000	    -14.34207756	     -2.38239685	     -1.70476103	     44.76407574	    -15.44791634	     44.76407574	     74.99822961	     44.99804512	      0.00000000	      0.00000000	     44.76407574	    -15.44791634	     44.76407574	     74.99822961	     44.99804512	      0.00000000	      0.00000000
      0.03500000	      1.94813668	      2.83492104	     -1.73090886	      0.25258511	      0.91811501	     -1.21129397	     -2.24679380	    -21.11868706	    -37.49812857	      4.78604110	      0.08353218	     -7.76207227	      7.39555153	      0.00000000	     -1.65275224	    -14.04891326	    -39.10169910	      5.00745154	      0.08739652	     -5.87056856	     12.82286236	      0.00000000	    -14.36774400	     -2.36150825	     -1.79771694	     44.76726533	    -15.43914796	     44.76726533	     74.99828879	     44.99815677	      0.00000000	      0.00000000	     44.76726533	    -15.43914796	     44.76726533	     74.99828879	     44.99815677	      0.00000000	      0.00000000
      0.04000000	      1.93630512	      2.91262350	     -1.74548294	      0.25256156	      0.91805842	     -1.21124792	     -2.18376189	    -21.23929848	    -37.52491644	      4.89155608	      0.08537376	     -7.69006481	      7.41474581	      0.00000000	     -1.64944993	    -13.94773442	    -39.10311681	      4.96363356	      0.08663175	     -5.91643415	     12.76840931	      0.00000000	    -14.35809980	     -2.46300084	     -1.77449453	     44.77175749	    -15.42652280	     44.77175749	     74.99837720	     44.99832484	      0.00000000	      0.00000000	     44.77175749	    -15.42652280	     44.77175749	     74.99837720	     44.99832484	      0.00000000	      0.00000000
      0.04500000	      1.94921279	      2.83642599	     -1.70851359	      0.25250230	      0.91812326	     -1.21128449	     -2.23150955	    -21.11974659	    -37.46303996	      4.82303130	      0.08417778	     -7.73626045	      7.23787597	      0.00000000	     -1.62478145	    -14.06084013	    -39.10179582	      5.03852954	      0.08793893	     -5.90390856	     12.86327119	      0.00000000	    -14.40583634	     -2.39052201	     -1.84783759	     44.77676605	    -15.41269362	     44.77676605	     74.99846947	     44.99847760	      0.00000000	      0.00000000	     44.77676605	    -15.41269362	     44.77676605	     74.99846947	     44.99847760	      0.00000000	      0.00000000
      0.05000000	      1.92076715	      2.81352833	     -1.73639303	      0.25246106	      0.91805637	     -1.21120615	     -2.16028276	    -21.11083907	    -37.45745956	      4.87253107	      0.08504171	     -7.70952412	      7.29204758	      0.00000000	     -1.59741093	    -14.09388259	    -39.10894506	      5.05187162	      0.08817179	     -5.86989778	     12.80060455	      0.00000000	    -14.37546254	     -2.34161147	     -1.75979719	     44.78466022	    -15.39141850	     44.78466022	     74.99860524	     44.99868114	      0.00000000	      0.00000000	     44.78466022	    -15.39141850	     44.78466022	     74.99860524	     44.99868114	      0.00000000	      0.00000000
      0.05500000	      1.90481240	      2.86727186	     -1.73472647	      0.25243185	      0.91799441	     -1.21118577	     -2.08500119	    -21.21941649	    -37.52629439	      5.01683478	      0.08756028	     -7.64277924	      7.34229406	      0.00000000	     -1.56696204	    -14.03921856	    -39.10711474	      5.06834019	      0.08845922	     -5.88710749	     12.76659354	      0.00000000	    -14.36713859	     -2.56306358	     -1.97625697	     44.79004338	    -15.37638663	     44.79004338	     74.99870792	     44.99885917	      0.00000000	      0.00000000	     44.79004338	    -15.37638663	     44.79004338	     74.99870792	     44.99885917	      0.00000000	      0.00000000
